<svg width="1220" height="1149" viewBox="0 0 1220 1149" fill="none" xmlns="http://www.w3.org/2000/svg">
<path d="M1019.79 -42.3309C1120.35 -8.61673 1241.48 -86.3286 1337.73 -43.4212C1430.86 -1.90609 1529.52 87.1564 1521.55 181.346C1511.99 294.23 1376.15 360.57 1296.18 447.223C1252.2 494.885 1160.59 517.252 1154.32 579.265C1142.68 694.471 1294.77 803.471 1249.26 911.476C1215.4 991.82 1068.48 953.702 981.977 988.251C879.153 1029.32 777.895 1198.65 690.223 1134.75C567.09 1045.01 737.983 795.582 607.308 715.18C478.586 635.981 305.031 851.586 157.606 807.043C49.8468 774.485 -20.2568 634.08 5.2502 533.275C34.8792 416.18 240.505 399.496 289.005 287.75C330.183 192.875 158.336 56.0083 241.876 -11.9212C334.066 -86.8834 492.188 75.1339 605.553 30.3545C709.736 -10.7981 676.614 -208.122 788.116 -227.687C890.146 -245.59 922.281 -75.0235 1019.79 -42.3309Z" fill="#570FF2"/>
</svg>
