<svg width="862" height="1134" viewBox="0 0 862 1134" fill="none" xmlns="http://www.w3.org/2000/svg">
<path d="M306.126 192.542C261.875 246.907 266.877 330.858 214.328 377.767C158.364 427.724 36.1437 393.362 5.52271 460.88C-24.2665 526.564 75.6298 587.699 86.9603 658.607C96.9118 720.885 43.6886 785.694 66.8353 844.584C89.7226 902.814 153.371 936.416 208.648 968.204C260.393 997.961 321.82 1002.13 377.83 1023.43C440.509 1047.25 494.756 1087.66 560.449 1101.94C641.283 1119.51 733.46 1155.6 805.798 1116.46C876.706 1078.09 875.031 976.618 916.808 909.101C957.2 843.824 1030.91 797.244 1049.13 723.2C1067.51 648.543 1061.87 561.423 1018.14 497.444C973.558 432.219 852.911 445.706 812.979 377.707C761.658 290.314 837.609 161.139 774 81.7048C718.372 12.2372 604.236 -13.8789 516.123 6.99469C423.11 29.0292 365.445 119.665 306.126 192.542Z" fill="#540EE8"/>
</svg>
