<svg width="417" height="574" viewBox="0 0 417 574" fill="none" xmlns="http://www.w3.org/2000/svg">
<path d="M266.683 97.4595C288.412 124.978 285.956 167.471 311.759 191.215C339.239 216.502 399.252 199.109 414.288 233.285C428.916 266.532 379.864 297.477 374.3 333.369C369.413 364.892 395.548 397.697 384.182 427.506C372.944 456.98 341.69 473.988 314.548 490.079C289.139 505.141 258.977 507.253 231.474 518.031C200.697 530.091 174.06 550.542 141.803 557.77C102.111 566.664 56.8497 584.933 21.3298 565.12C-13.4885 545.698 -12.6658 494.337 -33.1797 460.162C-53.013 427.121 -89.2046 403.543 -98.1545 366.064C-107.178 328.275 -104.41 284.177 -82.9373 251.793C-61.0456 218.777 -1.80432 225.604 17.8036 191.185C43.0038 146.949 5.70967 81.5643 36.9435 41.3568C64.2583 6.19415 120.302 -7.02514 163.568 3.54052C209.241 14.6938 237.556 60.5712 266.683 97.4595Z" fill="#540EE8"/>
</svg>
