<svg width="514" height="1378" viewBox="0 0 514 1378" fill="none" xmlns="http://www.w3.org/2000/svg">
<path d="M11.7938 186.669C112.354 220.383 233.482 142.671 329.732 185.579C422.858 227.094 521.522 316.156 513.547 410.346C503.988 523.23 368.153 589.57 288.185 676.223C244.199 723.885 152.591 746.252 146.323 808.265C134.679 923.471 286.775 1032.47 241.262 1140.48C207.405 1220.82 60.481 1182.7 -26.0234 1217.25C-128.847 1258.32 -230.105 1427.65 -317.777 1363.75C-440.91 1274.01 -270.017 1024.58 -400.692 944.18C-529.414 864.981 -702.969 1080.59 -850.394 1036.04C-958.153 1003.49 -1028.26 863.08 -1002.75 762.275C-973.121 645.18 -767.495 628.496 -718.995 516.75C-677.817 421.875 -849.664 285.008 -766.124 217.079C-673.934 142.117 -515.812 304.134 -402.447 259.355C-298.264 218.202 -331.386 20.8777 -219.884 1.31276C-117.854 -16.59 -85.7192 153.977 11.7938 186.669Z" fill="#570FF2"/>
</svg>
